<?xml version="1.0" encoding="UTF-8" standalone="no"?>
<svg version="1.1" id="Layer_1" xmlns="http://www.w3.org/2000/svg" xmlns:xlink="http://www.w3.org/1999/xlink" x="0px" y="0px"
	 width="512px" height="512px" viewBox="0 0 512 512" enable-background="new 0 0 512 512" xml:space="preserve">
<circle fill="#FFCE06" cx="307.278" cy="222.63" r="91.73"/>
<path fill="#2A58A7" d="M297.367,415.73c-7.613,0-13.813,6.131-13.813,13.947v27.355c0,7.682,6.131,13.947,13.813,13.947
	c7.613,0,13.813-6.131,13.813-13.947v-27.355C311.18,421.996,305.049,415.73,297.367,415.73L297.367,415.73z M297.367,415.73"/>
<path fill="#2A58A7" d="M187.008,415.73c-7.689,0-13.821,6.131-13.821,13.947v27.355c0,7.682,6.131,13.947,13.821,13.947
	c7.605,0,13.729-6.131,13.729-13.947v-27.355C200.737,421.996,194.614,415.73,187.008,415.73L187.008,415.73z M187.008,415.73"/>
<path fill="#2A58A7" d="M352.551,388.172c-7.615,0-13.813,6.131-13.813,13.947v27.289c0,7.681,6.131,13.947,13.813,13.947
	c7.613,0,13.813-6.132,13.813-13.947v-27.289C366.363,394.371,360.232,388.172,352.551,388.172L352.551,388.172z M352.551,388.172"
	/>
<path fill="#EAE8E8" d="M380.176,374.359H104.124c-30.388,0-55.108-24.661-55.108-55.184c0-26.076,18.108-48.041,42.567-53.769
	c-0.809-4.919-1.205-10.04-1.205-15.228c0-53.373,43.257-96.546,96.63-96.546c43.586,0,80.443,28.889,92.435,68.583
	c10.646-8.414,23.988-13.4,38.609-13.4c32.004,0,58.283,24.113,61.719,55.175h0.404c30.455,0,55.184,24.729,55.184,55.184
	S410.699,374.359,380.176,374.359L380.176,374.359z M380.176,374.359"/>
<path fill="#2A58A7" d="M242.183,388.172c-7.622,0-13.813,6.131-13.813,13.947v27.289c0,7.681,6.123,13.947,13.813,13.947
	c7.614,0,13.813-6.132,13.813-13.947v-27.289C255.996,394.371,249.865,388.172,242.183,388.172L242.183,388.172z M242.183,388.172"
	/>
<path fill="#FFCE06" d="M399.109,140.419l19.338-19.33c5.457-5.475,5.457-14.149,0.066-19.616
	c-5.391-5.382-14.082-5.382-19.607,0.135l-19.338,19.271c-5.389,5.466-5.523,14.208-0.066,19.616
	C384.893,145.869,393.584,145.944,399.109,140.419L399.109,140.419z M399.109,140.419"/>
<path fill="#FFCE06" d="M228.269,127.561c5.525,5.525,14.217,5.449,19.607,0.076c5.457-5.407,5.322-14.15-0.067-19.616
	L228.471,88.75c-5.524-5.517-14.217-5.517-19.607-0.135c-5.39,5.466-5.39,14.141,0.067,19.616L228.269,127.561L228.269,127.561z
	 M228.269,127.561"/>
<path fill="#2A58A7" d="M131.741,388.172c-7.605,0-13.729,6.131-13.729,13.947v27.289c0,7.681,6.123,13.947,13.729,13.947
	c7.69,0,13.821-6.132,13.821-13.947v-27.289C145.562,394.371,139.431,388.172,131.741,388.172L131.741,388.172z M131.741,388.172"/>
<path fill="#FFCE06" d="M311.18,112.188c7.613,0,13.813-6.123,13.813-13.939V70.96c0-7.689-6.131-13.956-13.813-13.956
	c-7.613,0-13.813,6.123-13.813,13.956v27.289C297.367,105.989,303.498,112.188,311.18,112.188L311.18,112.188z M311.18,112.188"/>
<path fill="#FFCE06" d="M407.801,208.885c0,7.605,6.131,13.745,13.947,13.745h27.355c7.682,0,13.881-6.14,13.881-13.745
	c0-7.698-6.064-13.821-13.881-13.821h-27.355C414.066,195.063,407.801,201.187,407.801,208.885L407.801,208.885z M407.801,208.885"
	/>
</svg>